<svg xmlns="http://www.w3.org/2000/svg" viewBox="0 0 1200 820" role="img" aria-label="AI automation with policy guardrails">
  <defs><linearGradient id="g" x1="0" y1="0" x2="1" y2="1"><stop stop-color="#0b1f2a"/><stop offset="1" stop-color="#071016"/></linearGradient><radialGradient id="glow" cx="65%" cy="30%" r="70%"><stop stop-color="#54b8e8" stop-opacity=".5"/><stop offset="1" stop-color="#54b8e8" stop-opacity="0"/></radialGradient></defs>
  <rect width="1200" height="820" fill="url(#g)"/><rect width="1200" height="820" fill="url(#glow)"/>
  <g fill="none" stroke="#54b8e8" stroke-opacity=".2" stroke-width="2"><path d="M170 200h230l120 120h230l120-120h160M170 440h230l120-120M750 320l120 120h160M520 560h230"/><circle cx="170" cy="200" r="16"/><circle cx="400" cy="200" r="16"/><circle cx="520" cy="320" r="16"/><circle cx="750" cy="320" r="16"/><circle cx="870" cy="200" r="16"/><circle cx="1030" cy="200" r="16"/><circle cx="170" cy="440" r="16"/><circle cx="870" cy="440" r="16"/><circle cx="1030" cy="440" r="16"/></g>
  <g transform="translate(415 145)"><rect x="0" y="0" width="370" height="370" rx="58" fill="#0d1820" stroke="#54b8e8" stroke-width="16"/><rect x="110" y="110" width="150" height="150" rx="24" fill="none" stroke="#dff7ff" stroke-width="14"/><g stroke="#54b8e8" stroke-width="12" stroke-linecap="round"><path d="M185 0v-70M185 440v-70M0 185h-70M440 185h-70M75 30l-42-42M295 340l42 42M340 75l42-42M30 295l-42 42"/></g><path d="M140 188l33 33 70-86" fill="none" stroke="#00f060" stroke-width="16" stroke-linecap="round" stroke-linejoin="round"/></g>
  <g transform="translate(100 560)" font-family="Arial, sans-serif" fill="#dff7ff"><text font-size="42" font-weight="700">Automation with guardrails.</text><text y="58" font-size="26" fill="#a8c3d0">AI can move fast when policy, access, and data controls are clear.</text></g>
</svg>